HIERARCHY
ROOT Hips
{
    OFFSET 0.000000 0.000000 0.000000
    CHANNELS 6 Xposition Yposition Zposition Zrotation Xrotation Yrotation
    JOINT Spine
    {
        OFFSET -0.000000 7.236184 0.000000
        CHANNELS 3 Zrotation Xrotation Yrotation
        JOINT Spine1
        {
            OFFSET -0.000000 20.420147 0.000000
            CHANNELS 3 Zrotation Xrotation Yrotation
            JOINT Neck
            {
                OFFSET -0.000000 20.336288 1.848754
                CHANNELS 3 Zrotation Xrotation Yrotation
                JOINT Head
                {
                    OFFSET -0.000000 12.354461 -1.764923
                    CHANNELS 3 Zrotation Xrotation Yrotation
                    End Site
                    {
                        OFFSET -0.000000 22.061537 0.000000
                    }
                }
            }
            JOINT LeftShoulder
            {
                OFFSET 3.573296 18.396038 -0.314103
                CHANNELS 3 Zrotation Xrotation Yrotation
                JOINT LeftArm
                {
                    OFFSET 10.880760 0.000000 0.000000
                    CHANNELS 3 Zrotation Xrotation Yrotation
                    JOINT LeftForeArm
                    {
                        OFFSET 27.185530 0.000000 0.000000
                        CHANNELS 3 Zrotation Xrotation Yrotation
                        JOINT LeftHand
                        {
                            OFFSET 27.825975 0.000000 0.000000
                            CHANNELS 3 Zrotation Xrotation Yrotation
                            End Site
                            {
                                OFFSET 13.236923 0.000000 0.000000
                            }
                        }
                    }
                }
            }
            JOINT RightShoulder
            {
                OFFSET -3.474926 18.396038 -0.314103
                CHANNELS 3 Zrotation Xrotation Yrotation
                JOINT RightArm
                {
                    OFFSET -10.880760 0.000000 0.000000
                    CHANNELS 3 Zrotation Xrotation Yrotation
                    JOINT RightForeArm
                    {
                        OFFSET -27.185530 0.000000 0.000000
                        CHANNELS 3 Zrotation Xrotation Yrotation
                        JOINT RightHand
                        {
                            OFFSET -27.825975 0.000000 0.000000
                            CHANNELS 3 Zrotation Xrotation Yrotation
                            End Site
                            {
                                OFFSET -13.236923 0.000000 0.000000
                            }
                        }
                    }
                }
            }
        }
    }
    JOINT LeftUpLeg
    {
        OFFSET 8.824615 0.000000 0.000000
        CHANNELS 3 Zrotation Xrotation Yrotation
        JOINT LeftLeg
        {
            OFFSET -0.000000 -35.111282 0.000000
            CHANNELS 3 Zrotation Xrotation Yrotation
            JOINT LeftFoot
            {
                OFFSET -0.000000 -42.324711 0.000000
                CHANNELS 3 Zrotation Xrotation Yrotation
                JOINT LeftToeBase
                {
                    OFFSET -0.000000 -5.735999 13.236923
                    CHANNELS 3 Zrotation Xrotation Yrotation
                    End Site
                    {
                        OFFSET -0.000000 0.000000 3.529846
                    }
                }
            }
        }
    }
    JOINT RightUpLeg
    {
        OFFSET -8.824615 0.000000 0.000000
        CHANNELS 3 Zrotation Xrotation Yrotation
        JOINT RightLeg
        {
            OFFSET -0.000000 -35.111282 0.000000
            CHANNELS 3 Zrotation Xrotation Yrotation
            JOINT RightFoot
            {
                OFFSET -0.000000 -42.324711 0.000000
                CHANNELS 3 Zrotation Xrotation Yrotation
                JOINT RightToeBase
                {
                    OFFSET -0.000000 -5.735999 13.236923
                    CHANNELS 3 Zrotation Xrotation Yrotation
                    End Site
                    {
                        OFFSET -0.000000 0.000000 3.529846
                    }
                }
            }
        }
    }
}
MOTION
Frames:    8
Frame Time:    0.008333
5.847352    83.540611    105.201912    -1.165889    -7.082376    -172.455841    -1.947503    -14.262644    -0.243678    0.459148    7.173553    -0.016913    2.027420    10.398624    -0.572084    1.155674    -3.512140    -0.506655    0.696393    16.435261    -0.647610    -47.679665    46.691692    -40.738323    2.625422    0.735420    -19.465322    13.302566    1.101668    -0.721555    6.592876    18.924629    -7.453672    49.666920    45.788258    25.976891    -0.370055    -10.672479    15.574041    -17.944824    -10.021980    -3.866054    3.630248    -10.761532    -2.357473    -0.807876    10.900059    -0.981383    -5.955551    -6.744227    -8.861136    -0.977984    1.139194    1.081857    -7.207692    0.878813    -1.868452    1.987977    4.271734    -1.482615    2.955374    -8.073468    -13.779705    -0.597474    -0.958690    0.647072    
5.889321    83.541542    105.223755    -1.151084    -7.112028    -172.399368    -1.939047    -14.242673    -0.252167    0.464468    7.164122    -0.039932    2.021678    10.393214    -0.563285    1.140038    -3.544993    -0.499688    0.673345    16.402781    -0.662608    -47.401756    46.879642    -41.191654    2.764649    0.330705    -19.765205    13.183076    0.752730    -0.516704    6.591815    18.931992    -7.447641    49.729153    45.746830    25.919388    -0.340358    -10.736998    15.544756    -18.104071    -10.077197    -3.917673    3.630391    -10.944189    -2.212381    -0.740010    11.111676    -1.145560    -5.963533    -6.770310    -8.885415    -0.978675    1.122410    1.082653    -7.170753    0.849880    -1.846483    1.997123    4.253801    -1.530697    2.938732    -8.073407    -13.800660    -0.596517    -0.959397    0.646036    
5.931242    83.542427    105.245590    -1.136179    -7.141953    -172.343964    -1.930159    -14.223182    -0.267003    0.468485    7.154717    -0.055841    2.016345    10.387645    -0.554421    1.124060    -3.577198    -0.492680    0.650316    16.370728    -0.678189    -47.111343    47.068035    -41.654678    2.903194    -0.077228    -20.063431    13.056953    0.399994    -0.319939    6.590401    18.939672    -7.441289    49.791462    45.706635    25.862125    -0.311316    -10.801339    15.516049    -18.260828    -10.132117    -3.968965    3.630887    -11.125559    -2.067543    -0.671322    11.320583    -1.309153    -5.971906    -6.796124    -8.909534    -0.979317    1.106209    1.083395    -7.133957    0.820464    -1.824567    2.006210    4.235806    -1.577459    2.922737    -8.073615    -13.821663    -0.595627    -0.960278    0.645072    
5.972722    83.543259    105.267143    -1.121187    -7.171930    -172.291046    -1.920517    -14.204739    -0.280101    0.471730    7.145519    -0.071948    2.011227    10.381862    -0.545492    1.108616    -3.607702    -0.485550    0.627897    16.339207    -0.694910    -46.804359    47.258064    -42.127426    3.040200    -0.486642    -20.357962    12.921120    0.044262    -0.139644    6.588227    18.948034    -7.434525    49.853195    45.669151    25.806198    -0.283445    -10.864854    15.488755    -18.410135    -10.186371    -4.018917    3.632377    -11.302171    -1.927585    -0.603923    11.521714    -1.465724    -5.980808    -6.820488    -8.933851    -0.979718    1.090407    1.083869    -7.097502    0.790712    -1.803257    2.014979    4.217776    -1.621641    2.908166    -8.074290    -13.841928    -0.594659    -0.961544    0.644025    
6.013610    83.544022    105.288383    -1.106166    -7.202178    -172.241577    -1.909993    -14.187688    -0.293674    0.473669    7.136607    -0.085505    2.006858    10.376042    -0.536390    1.092823    -3.636574    -0.478434    0.606209    16.308384    -0.713181    -46.476181    47.450878    -42.611713    3.176066    -0.895677    -20.648731    12.775701    -0.314860    0.019753    6.585217    18.957294    -7.427007    49.914360    45.635239    25.751728    -0.257812    -10.927323    15.463140    -18.547266    -10.239952    -4.066570    3.635083    -11.472124    -1.798372    -0.539338    11.711792    -1.607260    -5.990921    -6.842505    -8.959521    -0.980019    1.075752    1.084230    -7.061624    0.760102    -1.782900    2.023299    4.200285    -1.661990    2.895846    -8.075944    -13.861393    -0.593731    -0.963781    0.643022    
6.053670    83.544746    105.309189    -1.091286    -7.232589    -172.196365    -1.898583    -14.172099    -0.305277    0.474449    7.127800    -0.098605    2.003101    10.369713    -0.527113    1.076877    -3.662823    -0.471225    0.585817    16.278551    -0.733090    -46.125698    47.646744    -43.106152    3.310941    -1.302154    -20.935850    12.623863    -0.673121    0.156451    6.581492    18.967194    -7.418835    49.974426    45.605778    25.698671    -0.234682    -10.988463    15.439726    -18.667953    -10.292792    -4.111207    3.639047    -11.633415    -1.685357    -0.479240    11.887861    -1.726520    -6.002629    -6.861209    -8.987408    -0.980164    1.061657    1.084417    -7.026801    0.728818    -1.763533    2.031374    4.183560    -1.697036    2.886170    -8.078996    -13.880610    -0.592837    -0.966684    0.642057    
6.093423    83.545486    105.329826    -1.076564    -7.263653    -172.155243    -1.886221    -14.157907    -0.315226    0.473952    7.119361    -0.111292    1.999964    10.361871    -0.517327    1.060149    -3.685925    -0.463788    0.567038    16.248871    -0.754901    -45.747517    47.848522    -43.616940    3.447843    -1.708547    -21.225063    12.468366    -1.032655    0.273947    6.576681    18.977699    -7.409823    50.035027    45.580151    25.646177    -0.213788    -11.048759    15.417989    -18.772100    -10.345531    -4.152644    3.644041    -11.787730    -1.589353    -0.423357    12.051530    -1.821734    -6.016301    -6.876511    -9.018488    -0.980281    1.048313    1.084572    -6.992876    0.696112    -1.745240    2.039238    4.168347    -1.726080    2.879413    -8.084346    -13.900286    -0.591978    -0.970681    0.641130    
6.132606    83.546326    105.350174    -1.062522    -7.294815    -172.118774    -1.873461    -14.144349    -0.324715    0.472526    7.110939    -0.122213    1.996999    10.352895    -0.507035    1.042583    -3.706140    -0.455949    0.549762    16.219315    -0.778568    -45.344700    48.054043    -44.138489    3.587663    -2.108373    -21.517733    12.316555    -1.386205    0.376120    6.571078    18.988894    -7.400197    50.095554    45.557968    25.594131    -0.195093    -11.107775    15.398342    -18.858175    -10.397864    -4.190481    3.649547    -11.933767    -1.511220    -0.372066    12.202047    -1.891742    -6.031733    -6.888482    -9.052567    -0.980371    1.035930    1.084695    -6.960706    0.662664    -1.728173    2.047262    4.154847    -1.747965    2.875350    -8.092216    -13.920908    -0.591190    -0.975341    0.640281    
